HIERARCHY
ROOT Hips
{
  OFFSET 36.9024 100.536 -340.035
  CHANNELS 6 Xposition Yposition Zposition Zrotation Xrotation Yrotation
  JOINT ToSpine
  {
    OFFSET -0.0105055 1.38907 -7.13956
    CHANNELS 3 Zrotation Xrotation Yrotation
    JOINT Spine
    {
      OFFSET 0.0105055 10 1
      CHANNELS 3 Zrotation Xrotation Yrotation
      JOINT Spine1
      {
        OFFSET 0 12 1.60637
        CHANNELS 3 Zrotation Xrotation Yrotation
        JOINT Neck
        {
          OFFSET 0 27 2.26658
          CHANNELS 3 Zrotation Xrotation Yrotation
          JOINT Head
          {
            OFFSET 0 9 2.12705
            CHANNELS 3 Zrotation Xrotation Yrotation
            End Site
            {
              OFFSET 0 11 2
            }
          }
        }
        JOINT LeftShoulder
        {
          OFFSET 8 19.6109 2.86452
          CHANNELS 3 Zrotation Xrotation Yrotation
          JOINT LeftArm
          {
            OFFSET 12 1 0.681055
            CHANNELS 3 Zrotation Xrotation Yrotation
            JOINT LeftForeArm
            {
              OFFSET 19 0 -1.52608
              CHANNELS 3 Zrotation Xrotation Yrotation
              JOINT LeftHand
              {
                OFFSET 23 0 0
                CHANNELS 3 Zrotation Xrotation Yrotation
                End Site
                {
                  OFFSET 10 0 0
                }
              }
            }
          }
        }
        JOINT RightShoulder
        {
          OFFSET -8 19.6109 2.86452
          CHANNELS 3 Zrotation Xrotation Yrotation
          JOINT RightArm
          {
            OFFSET -12 1 0.681055
            CHANNELS 3 Zrotation Xrotation Yrotation
            JOINT RightForeArm
            {
              OFFSET -19 0 -1.52608
              CHANNELS 3 Zrotation Xrotation Yrotation
              JOINT RightHand
              {
                OFFSET -23 0 0
                CHANNELS 3 Zrotation Xrotation Yrotation
                End Site
                {
                  OFFSET -10 0 0
                }
              }
            }
          }
        }
      }
    }
  }
  JOINT LeftUpLeg
  {
    OFFSET 9 -7.17245 0
    CHANNELS 3 Zrotation Xrotation Yrotation
    JOINT LeftLeg
    {
      OFFSET 0 -44.1113 0
      CHANNELS 3 Zrotation Xrotation Yrotation
      JOINT LeftFoot
      {
        OFFSET 0 -36.1829 0
        CHANNELS 3 Zrotation Xrotation Yrotation
        JOINT LeftToeBase
        {
          OFFSET 0 -4.84184 13
          CHANNELS 3 Zrotation Xrotation Yrotation
          End Site
          {
            OFFSET 0 1 6
          }
        }
      }
    }
  }
  JOINT RightUpLeg
  {
    OFFSET -9 -7.17245 0
    CHANNELS 3 Zrotation Xrotation Yrotation
    JOINT RightLeg
    {
      OFFSET 0 -44.0551 0
      CHANNELS 3 Zrotation Xrotation Yrotation
      JOINT RightFoot
      {
        OFFSET 0 -36.1469 0
        CHANNELS 3 Zrotation Xrotation Yrotation
        JOINT RightToeBase
        {
          OFFSET 0 -4.92256 13
          CHANNELS 3 Zrotation Xrotation Yrotation
          End Site
          {
            OFFSET 0 1 6
          }
        }
      }
    }
  }
}
MOTION
Frames:	14
Frame Time:	0.0333333
14.1576 95.39 19.8622 -4.11708 -0.174047 -96.5984 0 0 0 11.2691 2.32535 7.28804 -14.32 7.64489 11.0187 28.6191 11.0861 -8.7322 8.29673 -2.37108 0.789752 -30.9115 3.09759 -4.86427 -60.4682 24.6452 18.0079 -3.89035 -4.03657 -8.05711 -15.3572 -0.00985563 0.0736954 27.8069 7.3191 17.8579 41.795 18.5558 15.3297 0.609769 0.385101 17.7463 2.62653 0.120707 5.25547 -0.754042 -27.5193 -4.03564 0.00869983 34.979 -22.2435 7.36255 -9.31568 0.605453 0.236016 -6.11071 0.899839 8.03001 8.8663 -2.25728 0.14791 20.9727 38.5734 -36.506 -6.54604 -2.16164 4.16887 -15.5206 -1.26188 
11.837 94.8038 19.8569 -3.68591 0.0912678 -99.6791 0 0 0 12.4444 1.59875 7.2177 -15.3954 7.7741 11.0752 27.5988 11.0057 -8.6492 9.01244 -2.04161 0.269212 -30.9451 3.09602 -4.85298 -58.3215 25.3545 16.5592 -4.40313 -7.42187 -8.31248 -14.2517 0.0115042 -0.091146 27.0995 7.17618 17.8726 42.5022 20.3721 15.8137 1.06821 0.949495 16.3536 2.66233 0.117469 5.05372 -2.36325 -27.2686 -1.30696 -0.0491921 28.4534 -28.2127 2.72591 -7.67736 0.172072 0.237529 -7.03034 1.18255 7.34606 10.2841 -3.05018 -0.0410647 21.2403 41.1484 -37.7048 -7.87151 -2.69096 4.4407 -16.4966 -0.60643 
9.40764 94.3288 19.7223 -3.33779 0.25632 -102.314 0 0 0 14.3593 0.54918 7.1592 -17.6358 8.24048 11.467 26.917 11.6008 -8.95886 9.14417 -2.89008 -0.15762 -30.6846 3.17722 -5.13092 -55.0134 24.4624 14.6511 -4.87265 -11.5387 -8.16457 -13.0093 0.0221779 -0.193685 27.1961 7.25161 18.0309 42.926 21.4873 15.4165 1.90289 0.786652 14.8197 3.35161 0.14849 5.07159 -4.22958 -26.9747 0.438894 -0.0469949 25.082 -28.4886 -3.81947 -8.56897 -0.282792 0.412863 -2.5523 -1.11196 6.6094 12.1587 -3.75968 -0.0729758 20.7024 42.6663 -39.2005 -8.08633 -2.88288 4.83106 -17.7674 0.433695 
6.91124 94.0991 19.39 -3.27766 0.0223909 -104.571 0 0 0 15.1114 -0.7798 6.89046 -18.9866 9.10349 11.5404 25.9023 12.13 -8.94571 9.37681 -3.15436 -0.47891 -30.9577 3.12609 -4.92938 -50.753 22.6247 12.4217 -4.68629 -12.5676 -8.16435 -11.8522 0.0518184 -0.504235 27.5447 7.45888 18.4176 42.8255 22.563 15.0035 2.6712 1.99219 12.9249 3.29983 0.145047 5.03867 -6.22338 -26.3739 0.201022 -0.126073 24.6222 -26.0885 -5.85829 -7.89664 -0.457573 0.472933 -0.608894 -1.82578 5.6436 14.2886 -4.28325 -0.506842 19.9301 44.2645 -38.0508 -8.50769 -2.93747 4.39129 -16.203 0.621092 
4.15379 94.1754 18.8443 -3.58573 -0.772572 -106.849 0 0 0 14.4398 -2.95919 7.06523 -19.3268 10.804 11.9089 25.3074 12.743 -9.38525 9.6088 -3.11047 -1.10277 -31.7485 3.23336 -5.03772 -45.9963 19.1066 10.0883 -4.38338 -13.5344 -6.89408 -10.6585 0.10112 -1.07821 27.395 7.32388 18.1208 43.4802 23.3277 14.3409 3.30316 4.20904 10.9376 3.69063 0.14771 4.58288 -8.19206 -25.254 -1.87003 -0.116772 25.8097 -27.9246 1.0544 -3.02739 0.0552568 0.766237 -2.31328 -2.81477 4.19386 16.796 -4.41186 -1.46027 18.4771 45.2539 -35.1615 -8.7357 -2.77414 4.0631 -14.9575 3.06199 
1.09806 94.4617 18.0191 -3.9568 -2.03376 -109.278 0 0 0 13.9099 -5.41183 7.08299 -21.0876 12.1003 12.4094 26.9581 13.8305 -10.3037 8.76466 -3.86625 -0.907737 -31.8241 3.04615 -4.53165 -41.1576 15.6339 7.70581 -4.13184 -15.9284 -5.67297 -9.2816 0.102166 -1.25992 28.6253 7.58878 18.1316 44.0557 23.3441 12.9734 4.03088 5.14141 9.05786 3.82772 0.142296 4.24442 -9.98509 -24.292 -3.54742 -0.0598388 27.1387 -25.6614 0.696183 -1.54474 0.0111873 0.806106 0.048795 -3.37839 2.34107 18.3391 -4.24477 -3.14793 18.3805 47.7989 -28.4183 -8.26616 -2.10075 3.21973 -12.2591 4.34572 
-2.03179 94.6001 16.9441 -4.66572 -3.15052 -111.403 0 0 0 12.859 -7.89686 7.07342 -21.5367 13.6346 12.6322 26.691 14.5765 -10.4955 9.47637 -3.10918 -1.26306 -32.5772 2.94045 -4.09999 -36.6424 11.0442 4.54825 -3.82395 -20.6359 -3.49778 -8.60744 0.142973 -1.90374 28.337 7.54605 18.1842 45.9748 22.898 11.4321 4.55808 6.04052 7.02563 3.40475 0.109517 3.689 -11.0124 -22.8274 -2.93402 0.00104754 28.9569 -23.6821 1.31263 -3.19764 0.0297732 0.923496 1.64137 -4.07134 0.810041 18.9648 -2.90047 -4.73674 20.3753 47.6092 -21.1235 -7.44185 -1.38173 2.55154 -10.4149 6.56135 
-4.78101 94.7673 15.8569 -5.95206 -4.14937 -114 0 0 0 11.5027 -8.32593 7.07257 -22.4457 13.433 12.879 27.6996 15.8129 -11.2524 9.79856 -3.2158 -1.40498 -32.0041 2.97996 -4.31782 -34.0706 8.59226 1.86952 -3.34573 -25.1422 -1.33975 -8.16088 0.155412 -2.17581 28.5034 7.51588 17.999 48.3458 21.8735 8.7345 4.69103 5.45521 6.44978 3.29796 0.101159 3.51306 -11.494 -20.8131 -0.577599 -0.000775303 30.629 -23.6039 -0.201679 -7.31616 -0.0115661 0.943323 5.85797 -4.60185 -1.51779 19.5802 1.22962 -4.16632 22.9972 43.281 -11.8118 -6.87513 -0.713974 2.60789 -10.1717 4.70698 
-7.06704 94.9205 14.9558 -7.12707 -4.81193 -116.998 0 0 0 9.58309 -8.11305 6.8246 -21.957 13.3454 12.4177 27.0529 15.9946 -11.0725 9.72027 -2.82715 -1.48381 -32.0114 2.96345 -4.27354 -32.1546 7.89643 -1.03247 -3.54949 -30.0478 -1.30795 -8.19916 0.0841384 -1.17225 27.6554 7.17789 17.5425 49.5796 22.5334 7.32591 5.06533 4.244 6.34098 3.28995 0.0989161 3.43298 -11.5703 -18.6545 2.21489 0.00990759 30.9858 -23.4759 -1.31511 -9.57043 -0.108668 1.39916 6.36678 -6.2122 -4.68738 18.8375 5.40586 -0.809567 27.4876 36.1799 -5.16579 -4.50874 -0.226631 4.14513 -15.5207 -0.717212 
-9.1533 95.1518 14.2752 -7.92769 -4.58058 -120.802 0 0 0 8.9979 -7.25791 6.61304 -21.8306 12.8551 11.866 26.4372 15.9548 -10.3957 9.10582 -2.65014 -0.955689 -31.5498 3.01396 -4.50214 -31.5094 8.02283 -3.18717 -3.71097 -28.8225 -1.93762 -7.98855 0.1428 -2.05614 26.785 6.78482 16.9112 50.1735 24.3461 6.19707 5.65027 1.79624 7.20629 2.84191 0.0996818 4.08766 -11.2179 -16.5549 4.15964 -0.0957151 31.0466 -22.0958 -1.7276 -11.7499 -0.177452 1.51543 7.17684 -6.65181 -7.70056 15.8109 3.62912 0.161746 34.8395 34.4514 1.83463 -2.42553 0.0791294 3.70889 -13.6861 -2.70586 
-10.9262 95.3801 13.7775 -8.41626 -4.45975 -124.902 0 0 0 7.47567 -5.63484 6.04536 -20.4966 11.4259 10.6438 25.7491 15.9395 -9.46325 7.91376 -2.80491 -0.0407742 -31.2752 3.06283 -4.68985 -31.1249 9.59146 -4.66843 -4.67521 -28.0319 -4.58929 -7.68198 0.185125 -2.76026 25.8294 6.51768 16.6773 50.137 25.9626 5.12126 5.81221 0.878095 8.51177 1.71069 0.0720403 4.78068 -11.1726 -14.8676 4.86926 -0.670799 30.4793 -19.2732 -2.19781 -13.5686 -0.26149 1.70657 8.34118 -7.30197 -10.1809 10.7789 1.34712 -0.152349 44.4376 32.3079 -7.14861 -3.7214 -0.301142 4.36435 -16.8214 -6.30125 
-12.3811 95.4809 13.2296 -8.88928 -4.22317 -129.276 0 0 0 4.98967 -4.56762 5.58133 -18.2033 11.4065 9.47275 24.8715 15.0688 -8.15505 6.72893 -2.39086 0.963221 -30.5439 3.01387 -4.72295 -30.6974 11.2371 -7.48395 -5.04496 -25.6177 -6.15558 -8.39964 0.207148 -2.82172 25.7868 6.50899 16.6746 48.529 25.0319 4.438 4.58749 2.56488 10.2983 2.3206 0.0906696 4.46594 -10.9388 -13.521 5.15005 -1.72408 30.2813 -15.718 -3.01805 -15.4469 -0.409254 1.57091 8.66333 -6.88525 -11.7871 5.01694 1.52782 0.0250407 52.6162 23.0716 -15.603 -10.6384 -1.43494 4.56749 -17.5162 -5.06811 
-13.9539 95.8855 12.6513 -9.14351 -3.33947 -132.978 0 0 0 3.28858 -2.34598 4.57391 -16.3282 9.72866 7.87361 24.603 15.5035 -7.06025 5.99356 -2.6829 2.22738 -29.2263 3.14824 -5.39807 -30.3456 12.9891 -8.94442 -5.77665 -25.5485 -8.29528 -8.31491 0.289809 -3.98561 26.0855 6.41494 16.2133 47.6486 22.4209 3.73461 3.78565 1.49808 11.5079 2.62498 0.103859 4.50537 -10.2757 -11.1649 4.60059 -2.86649 28.6187 -12.2458 -4.75056 -16.3644 -0.68431 2.25978 10.4035 -9.0463 -12.2955 -0.448442 0.943144 0.0356178 57.2212 14.4721 -21.0318 -13.762 -2.5606 5.11339 -19.9888 -5.62286 
-15.5266 96.343 11.9383 -8.76593 -2.12551 -135.648 0 0 0 2.21683 -0.684669 3.33655 -14.3329 8.51993 6.09976 24.3391 16.2647 -6.10069 5.17974 -2.66776 3.41515 -28.8406 3.2375 -5.74971 -27.8559 15.2182 -11.6051 -5.82639 -23.1756 -8.8829 -8.34112 0.245054 -3.35917 26.9859 6.60768 16.274 46.7264 20.4622 2.39075 3.48774 -1.08241 12.7059 1.10923 0.0407853 4.2407 -9.13794 -8.80916 4.52473 -3.47771 27.0453 -10.8457 -6.41596 -17.5366 -0.989683 2.39531 11.6932 -9.41898 -11.3812 -5.60456 0.61144 0.0658863 58.8919 6.82907 -26.2449 -14.8589 -3.47548 5.22755 -21.271 -8.12367 
